<svg width="200" height="200" viewBox="0 0 200 200" xmlns="http://www.w3.org/2000/svg">
    <!-- Heart Shape -->
    <path d="M100 180C94.667 180 89.333 178.667 84 176L36 148C24 140 16 128 16 114V74C16 54.667 32 40 52 40C67.333 40 80 46.667 88 60L100 80L112 60C120 46.667 132.667 40 148 40C168 40 184 54.667 184 74V114C184 128 176 140 164 148L116 176C110.667 178.667 105.333 180 100 180Z" 
        fill="url(#gradient)" />
    
    <!-- Gradient Definition -->
    <defs>
        <linearGradient id="gradient" x1="0%" y1="0%" x2="100%" y2="100%">
            <stop offset="0%" style="stop-color:#ff6b6b" />
            <stop offset="100%" style="stop-color:#4a90e2" />
        </linearGradient>
    </defs>
</svg>
